<svg xmlns="http://www.w3.org/2000/svg" xmlns:xlink="http://www.w3.org/1999/xlink" width="400" zoomAndPan="magnify" viewBox="0 0 300 149.999998" height="200" preserveAspectRatio="xMidYMid meet" version="1.0"><defs><g/></defs><g fill="#16896d" fill-opacity="0.7686"><g transform="translate(97.185576, 145.168133)"><g><path d="M 29.054688 -19.476562 C 27.804688 -13.53125 25.394531 -9.535156 22.460938 -9.105469 C 21.332031 -8.9375 20.472656 -9.457031 20.292969 -10.675781 C 20.207031 -11.265625 20.261719 -12.148438 20.453125 -13.050781 L 25.644531 -38.945312 C 25.804688 -39.753906 25.839844 -40.449219 25.753906 -41.035156 C 25.449219 -43.113281 23.769531 -43.882812 22.097656 -43.636719 C 20.339844 -43.378906 18.550781 -42.054688 18.117188 -39.964844 C 16.421875 -41.789062 13.347656 -41.984375 11.363281 -41.695312 C 6.9375 -41.042969 2.929688 -37.875 2.03125 -33.316406 L -2.289062 -11.515625 C -2.527344 -10.328125 -2.582031 -9.121094 -2.421875 -8.039062 C -1.722656 -3.253906 2.617188 -0.382812 7.628906 -1.117188 C 10.292969 -1.507812 13.054688 -3.113281 14.988281 -5.65625 C 16.847656 -3.667969 19.726562 -2.894531 22.753906 -3.335938 C 29.523438 -4.328125 33.171875 -10.582031 34.683594 -19.152344 C 34.765625 -19.53125 34.757812 -19.898438 34.710938 -20.214844 C 34.484375 -21.75 33.089844 -22.46875 31.691406 -22.261719 C 30.472656 -22.085938 29.3125 -21.175781 29.054688 -19.476562 Z M 8.164062 -8.160156 C 6.496094 -7.914062 5.285156 -8.9375 5.046875 -10.5625 C 4.964844 -11.105469 5.007812 -11.753906 5.136719 -12.464844 L 8.761719 -31.121094 C 9.21875 -33.355469 10.609375 -34.894531 12.414062 -35.160156 C 14.445312 -35.457031 16.496094 -34.054688 16.765625 -32.203125 C 16.8125 -31.886719 16.769531 -31.558594 16.726562 -31.226562 L 13.539062 -15.21875 C 12.507812 -9.996094 10.46875 -8.5 8.164062 -8.160156 Z M 8.164062 -8.160156 "/></g></g></g><g fill="#16896d" fill-opacity="0.7686"><g transform="translate(126.21212, 140.91156)"><g><path d="M 22.40625 -17.949219 C 21.84375 -15.191406 20.050781 -13.269531 17.65625 -12.917969 L 17.433594 -12.886719 L 18.65625 -18.691406 C 18.929688 -19.976562 18.976562 -21.226562 18.816406 -22.3125 C 18.167969 -26.734375 14.398438 -29.179688 10.425781 -28.597656 C 9.65625 -28.484375 8.992188 -28.296875 8.304688 -27.964844 L 10 -36.835938 C 10.09375 -37.449219 10.15625 -37.964844 10.085938 -38.460938 C 9.804688 -40.359375 8.113281 -41.21875 6.53125 -40.984375 C 5.132812 -40.78125 3.90625 -39.722656 3.542969 -37.78125 C 1.683594 -27.824219 0.0429688 -19.835938 -1.617188 -11.015625 C -1.855469 -9.828125 -1.890625 -8.484375 -1.738281 -7.445312 C -1.015625 -2.527344 3.429688 -0.503906 7.945312 -1.164062 C 11.242188 -1.648438 14.710938 -3.449219 16.125 -7.34375 C 16.679688 -7.332031 17.273438 -7.375 17.859375 -7.460938 C 22.644531 -8.164062 27.058594 -11.714844 27.929688 -17.101562 C 27.976562 -17.382812 27.992188 -17.617188 27.957031 -17.84375 C 27.738281 -19.332031 26.019531 -20.046875 24.53125 -19.828125 C 23.535156 -19.683594 22.609375 -19.085938 22.40625 -17.949219 Z M 9.964844 -9.394531 L 9.929688 -9.019531 C 9.605469 -7.449219 8.332031 -6.710938 7.15625 -6.539062 C 5.847656 -6.34375 4.882812 -6.941406 4.699219 -8.207031 C 4.640625 -8.613281 4.617188 -9.070312 4.726562 -9.59375 C 5.449219 -13.15625 6.023438 -16.148438 6.695312 -19.75 C 7.351562 -21.554688 8.632812 -22.894531 9.941406 -23.085938 C 11.117188 -23.257812 12.039062 -22.609375 12.207031 -21.480469 C 12.253906 -21.164062 12.261719 -20.796875 12.175781 -20.414062 L 11.625 -17.566406 C 11.34375 -17.617188 11.671875 -17.574219 11.355469 -17.527344 C 9.144531 -17.203125 7.648438 -15.140625 7.984375 -12.839844 C 8.179688 -11.527344 8.859375 -10.335938 9.964844 -9.394531 Z M 9.964844 -9.394531 "/></g></g></g><g fill="#16896d" fill-opacity="0.7686"><g transform="translate(148.738162, 137.608247)"><g><path d="M 17.710938 -12.234375 C 17.71875 -12.191406 17.613281 -12.914062 17.304688 -13.742188 C 17.589844 -14.015625 17.851562 -14.421875 18.0625 -14.871094 C 18.664062 -16.109375 19.445312 -20.238281 19.179688 -22.042969 C 18.503906 -26.648438 14.261719 -29.160156 9.386719 -28.445312 C 5.144531 -27.824219 1.46875 -24.886719 0.613281 -20.65625 L -1.316406 -10.875 C -1.558594 -9.6875 -1.574219 -8.53125 -1.429688 -7.539062 C -0.734375 -2.796875 3.746094 -0.550781 8.351562 -1.226562 C 11.871094 -1.742188 14.914062 -3.339844 16.332031 -6.867188 C 17.175781 -6.761719 18.144531 -6.765625 19.09375 -6.902344 C 24.421875 -7.683594 28.0625 -12.09375 28.902344 -17.058594 C 28.964844 -17.574219 28.988281 -18.039062 28.929688 -18.445312 C 28.683594 -20.117188 27.328125 -20.886719 26.015625 -20.691406 C 24.796875 -20.515625 23.640625 -19.605469 23.390625 -17.863281 C 22.804688 -14.917969 21.015625 -12.671875 18.351562 -12.28125 C 18.171875 -12.257812 17.898438 -12.214844 17.710938 -12.234375 Z M 12.496094 -18.570312 C 12.417969 -18.144531 12.335938 -17.765625 12.34375 -17.398438 C 9.820312 -17.304688 7.90625 -14.949219 8.304688 -12.238281 C 8.574219 -10.710938 9.460938 -10.011719 10.425781 -9.414062 C 10.070312 -7.75 8.871094 -6.789062 7.472656 -6.582031 C 5.710938 -6.324219 5.101562 -7.34375 4.945312 -8.425781 C 4.816406 -9.285156 4.925781 -10.128906 5.039062 -10.605469 L 6.898438 -20.242188 C 7.222656 -21.8125 8.675781 -22.898438 10.078125 -23.105469 C 11.476562 -23.308594 12.519531 -22.496094 12.671875 -21.457031 C 12.789062 -20.644531 12.671875 -19.566406 12.496094 -18.570312 Z M 12.496094 -18.570312 "/></g></g></g><g fill="#16896d" fill-opacity="0.7686"><g transform="translate(172.302477, 134.152678)"><g><path d="M 23.949219 -16.886719 C 22.710938 -11.167969 20.566406 -8.503906 18.488281 -8.199219 C 17.675781 -8.078125 17.066406 -8.453125 16.976562 -9.082031 C 16.949219 -9.265625 16.953125 -9.542969 17.011719 -9.78125 L 20.171875 -25.644531 C 20.285156 -26.125 20.273438 -26.539062 20.210938 -26.945312 C 19.949219 -28.75 18.1875 -29.738281 16.5625 -29.5 C 15.253906 -29.304688 14.011719 -28.339844 13.613281 -26.34375 L 10.679688 -11.757812 C 9.78125 -9.089844 8.152344 -6.683594 6.34375 -6.417969 C 5.667969 -6.320312 5.242188 -6.71875 5.140625 -7.394531 C 5.089844 -7.753906 5.09375 -8.355469 5.160156 -8.828125 L 8.015625 -23.632812 C 8.125 -24.15625 8.148438 -24.621094 8.082031 -25.074219 C 7.8125 -26.921875 6 -27.949219 4.332031 -27.703125 C 3.066406 -27.519531 1.824219 -26.550781 1.457031 -24.652344 L -1.566406 -8.484375 C -1.71875 -7.632812 -1.734375 -6.800781 -1.621094 -6.035156 C -1.085938 -2.378906 2.257812 -0.332031 6.050781 -0.886719 C 8.757812 -1.285156 10.597656 -2.890625 12.003906 -4.941406 C 13.597656 -3.191406 16.207031 -2.375 18.914062 -2.773438 C 23.203125 -3.402344 27.734375 -6.789062 29.5625 -16.648438 C 29.613281 -16.933594 29.617188 -17.210938 29.578125 -17.480469 C 29.367188 -18.925781 27.886719 -19.582031 26.488281 -19.378906 C 25.3125 -19.207031 24.1875 -18.394531 23.949219 -16.886719 Z M 23.949219 -16.886719 "/></g></g></g><g fill="#16896d" fill-opacity="0.7686"><g transform="translate(196.634214, 130.58457)"><g><path d="M 14.25 -15.09375 C 13.171875 -9.863281 10.679688 -7.054688 8.058594 -6.667969 C 6.433594 -6.429688 5.296875 -7.277344 5.117188 -8.496094 C 5.070312 -8.8125 5.109375 -9.1875 5.152344 -9.515625 L 7.730469 -22.761719 L 10.664062 -23.191406 C 12.964844 -23.527344 13.945312 -25.332031 13.726562 -26.824219 C 13.554688 -27.996094 12.636719 -28.921875 10.921875 -28.671875 L 8.890625 -28.371094 L 10.625 -37.621094 C 10.667969 -37.949219 10.671875 -38.226562 10.632812 -38.496094 C 10.386719 -40.167969 9.015625 -41.347656 7.03125 -41.058594 C 5.539062 -40.839844 4.429688 -39.617188 4.117188 -37.957031 L 1.984375 -27.359375 L 0.0859375 -27.082031 C -2.351562 -26.722656 -3.164062 -25.039062 -2.953125 -23.59375 C -2.765625 -22.328125 -1.839844 -21.359375 -0.621094 -21.535156 L 0.867188 -21.753906 L -1.328125 -10.320312 L -1.335938 -10.363281 C -1.539062 -9.226562 -1.574219 -8.207031 -1.433594 -7.261719 C -0.757812 -2.65625 3.746094 -0.550781 8.398438 -1.230469 C 14.175781 -2.078125 18.375 -7.074219 19.863281 -14.855469 C 19.90625 -15.1875 19.953125 -15.515625 19.914062 -15.785156 C 19.714844 -17.140625 18.277344 -17.804688 16.878906 -17.601562 C 15.75 -17.433594 14.578125 -16.617188 14.25 -15.09375 Z M 14.25 -15.09375 "/></g></g></g><g fill="#7effe0" fill-opacity="1"><g transform="translate(95.906373, 143.947517)"><g><path d="M 29.054688 -19.476562 C 27.804688 -13.53125 25.394531 -9.535156 22.460938 -9.105469 C 21.332031 -8.9375 20.472656 -9.457031 20.292969 -10.675781 C 20.207031 -11.265625 20.261719 -12.148438 20.453125 -13.050781 L 25.644531 -38.945312 C 25.804688 -39.753906 25.839844 -40.449219 25.753906 -41.035156 C 25.449219 -43.113281 23.769531 -43.882812 22.097656 -43.636719 C 20.339844 -43.378906 18.550781 -42.054688 18.117188 -39.964844 C 16.421875 -41.789062 13.347656 -41.984375 11.363281 -41.695312 C 6.9375 -41.042969 2.929688 -37.875 2.03125 -33.316406 L -2.289062 -11.515625 C -2.527344 -10.328125 -2.582031 -9.121094 -2.421875 -8.039062 C -1.722656 -3.253906 2.617188 -0.382812 7.628906 -1.117188 C 10.292969 -1.507812 13.054688 -3.113281 14.988281 -5.65625 C 16.847656 -3.667969 19.726562 -2.894531 22.753906 -3.335938 C 29.523438 -4.328125 33.171875 -10.582031 34.683594 -19.152344 C 34.765625 -19.53125 34.757812 -19.898438 34.710938 -20.214844 C 34.484375 -21.75 33.089844 -22.46875 31.691406 -22.261719 C 30.472656 -22.085938 29.3125 -21.175781 29.054688 -19.476562 Z M 8.164062 -8.160156 C 6.496094 -7.914062 5.285156 -8.9375 5.046875 -10.5625 C 4.964844 -11.105469 5.007812 -11.753906 5.136719 -12.464844 L 8.761719 -31.121094 C 9.21875 -33.355469 10.609375 -34.894531 12.414062 -35.160156 C 14.445312 -35.457031 16.496094 -34.054688 16.765625 -32.203125 C 16.8125 -31.886719 16.769531 -31.558594 16.726562 -31.226562 L 13.539062 -15.21875 C 12.507812 -9.996094 10.46875 -8.5 8.164062 -8.160156 Z M 8.164062 -8.160156 "/></g></g></g><g fill="#7effe0" fill-opacity="1"><g transform="translate(124.932918, 139.690944)"><g><path d="M 22.40625 -17.949219 C 21.84375 -15.191406 20.050781 -13.269531 17.65625 -12.917969 L 17.433594 -12.886719 L 18.65625 -18.691406 C 18.929688 -19.976562 18.976562 -21.226562 18.816406 -22.3125 C 18.167969 -26.734375 14.398438 -29.179688 10.425781 -28.597656 C 9.65625 -28.484375 8.992188 -28.296875 8.304688 -27.964844 L 10 -36.835938 C 10.09375 -37.449219 10.15625 -37.964844 10.085938 -38.460938 C 9.804688 -40.359375 8.113281 -41.21875 6.53125 -40.984375 C 5.132812 -40.78125 3.90625 -39.722656 3.542969 -37.78125 C 1.683594 -27.824219 0.0429688 -19.835938 -1.617188 -11.015625 C -1.855469 -9.828125 -1.890625 -8.484375 -1.738281 -7.445312 C -1.015625 -2.527344 3.429688 -0.503906 7.945312 -1.164062 C 11.242188 -1.648438 14.710938 -3.449219 16.125 -7.34375 C 16.679688 -7.332031 17.273438 -7.375 17.859375 -7.460938 C 22.644531 -8.164062 27.058594 -11.714844 27.929688 -17.101562 C 27.976562 -17.382812 27.992188 -17.617188 27.957031 -17.84375 C 27.738281 -19.332031 26.019531 -20.046875 24.53125 -19.828125 C 23.535156 -19.683594 22.609375 -19.085938 22.40625 -17.949219 Z M 9.964844 -9.394531 L 9.929688 -9.019531 C 9.605469 -7.449219 8.332031 -6.710938 7.15625 -6.539062 C 5.847656 -6.34375 4.882812 -6.941406 4.699219 -8.207031 C 4.640625 -8.613281 4.617188 -9.070312 4.726562 -9.59375 C 5.449219 -13.15625 6.023438 -16.148438 6.695312 -19.75 C 7.351562 -21.554688 8.632812 -22.894531 9.941406 -23.085938 C 11.117188 -23.257812 12.039062 -22.609375 12.207031 -21.480469 C 12.253906 -21.164062 12.261719 -20.796875 12.175781 -20.414062 L 11.625 -17.566406 C 11.34375 -17.617188 11.671875 -17.574219 11.355469 -17.527344 C 9.144531 -17.203125 7.648438 -15.140625 7.984375 -12.839844 C 8.179688 -11.527344 8.859375 -10.335938 9.964844 -9.394531 Z M 9.964844 -9.394531 "/></g></g></g><g fill="#7effe0" fill-opacity="1"><g transform="translate(147.458959, 136.387631)"><g><path d="M 17.710938 -12.234375 C 17.71875 -12.191406 17.613281 -12.914062 17.304688 -13.742188 C 17.589844 -14.015625 17.851562 -14.421875 18.0625 -14.871094 C 18.664062 -16.109375 19.445312 -20.238281 19.179688 -22.042969 C 18.503906 -26.648438 14.261719 -29.160156 9.386719 -28.445312 C 5.144531 -27.824219 1.46875 -24.886719 0.613281 -20.65625 L -1.316406 -10.875 C -1.558594 -9.6875 -1.574219 -8.53125 -1.429688 -7.539062 C -0.734375 -2.796875 3.746094 -0.550781 8.351562 -1.226562 C 11.871094 -1.742188 14.914062 -3.339844 16.332031 -6.867188 C 17.175781 -6.761719 18.144531 -6.765625 19.09375 -6.902344 C 24.421875 -7.683594 28.0625 -12.09375 28.902344 -17.058594 C 28.964844 -17.574219 28.988281 -18.039062 28.929688 -18.445312 C 28.683594 -20.117188 27.328125 -20.886719 26.015625 -20.691406 C 24.796875 -20.515625 23.640625 -19.605469 23.390625 -17.863281 C 22.804688 -14.917969 21.015625 -12.671875 18.351562 -12.28125 C 18.171875 -12.257812 17.898438 -12.214844 17.710938 -12.234375 Z M 12.496094 -18.570312 C 12.417969 -18.144531 12.335938 -17.765625 12.34375 -17.398438 C 9.820312 -17.304688 7.90625 -14.949219 8.304688 -12.238281 C 8.574219 -10.710938 9.460938 -10.011719 10.425781 -9.414062 C 10.070312 -7.75 8.871094 -6.789062 7.472656 -6.582031 C 5.710938 -6.324219 5.101562 -7.34375 4.945312 -8.425781 C 4.816406 -9.285156 4.925781 -10.128906 5.039062 -10.605469 L 6.898438 -20.242188 C 7.222656 -21.8125 8.675781 -22.898438 10.078125 -23.105469 C 11.476562 -23.308594 12.519531 -22.496094 12.671875 -21.457031 C 12.789062 -20.644531 12.671875 -19.566406 12.496094 -18.570312 Z M 12.496094 -18.570312 "/></g></g></g><g fill="#7effe0" fill-opacity="1"><g transform="translate(171.023275, 132.932062)"><g><path d="M 23.949219 -16.886719 C 22.710938 -11.167969 20.566406 -8.503906 18.488281 -8.199219 C 17.675781 -8.078125 17.066406 -8.453125 16.976562 -9.082031 C 16.949219 -9.265625 16.953125 -9.542969 17.011719 -9.78125 L 20.171875 -25.644531 C 20.285156 -26.125 20.273438 -26.539062 20.210938 -26.945312 C 19.949219 -28.75 18.1875 -29.738281 16.5625 -29.5 C 15.253906 -29.304688 14.011719 -28.339844 13.613281 -26.34375 L 10.679688 -11.757812 C 9.78125 -9.089844 8.152344 -6.683594 6.34375 -6.417969 C 5.667969 -6.320312 5.242188 -6.71875 5.140625 -7.394531 C 5.089844 -7.753906 5.09375 -8.355469 5.160156 -8.828125 L 8.015625 -23.632812 C 8.125 -24.15625 8.148438 -24.621094 8.082031 -25.074219 C 7.8125 -26.921875 6 -27.949219 4.332031 -27.703125 C 3.066406 -27.519531 1.824219 -26.550781 1.457031 -24.652344 L -1.566406 -8.484375 C -1.71875 -7.632812 -1.734375 -6.800781 -1.621094 -6.035156 C -1.085938 -2.378906 2.257812 -0.332031 6.050781 -0.886719 C 8.757812 -1.285156 10.597656 -2.890625 12.003906 -4.941406 C 13.597656 -3.191406 16.207031 -2.375 18.914062 -2.773438 C 23.203125 -3.402344 27.734375 -6.789062 29.5625 -16.648438 C 29.613281 -16.933594 29.617188 -17.210938 29.578125 -17.480469 C 29.367188 -18.925781 27.886719 -19.582031 26.488281 -19.378906 C 25.3125 -19.207031 24.1875 -18.394531 23.949219 -16.886719 Z M 23.949219 -16.886719 "/></g></g></g><g fill="#7effe0" fill-opacity="1"><g transform="translate(195.355012, 129.363954)"><g><path d="M 14.25 -15.09375 C 13.171875 -9.863281 10.679688 -7.054688 8.058594 -6.667969 C 6.433594 -6.429688 5.296875 -7.277344 5.117188 -8.496094 C 5.070312 -8.8125 5.109375 -9.1875 5.152344 -9.515625 L 7.730469 -22.761719 L 10.664062 -23.191406 C 12.964844 -23.527344 13.945312 -25.332031 13.726562 -26.824219 C 13.554688 -27.996094 12.636719 -28.921875 10.921875 -28.671875 L 8.890625 -28.371094 L 10.625 -37.621094 C 10.667969 -37.949219 10.671875 -38.226562 10.632812 -38.496094 C 10.386719 -40.167969 9.015625 -41.347656 7.03125 -41.058594 C 5.539062 -40.839844 4.429688 -39.617188 4.117188 -37.957031 L 1.984375 -27.359375 L 0.0859375 -27.082031 C -2.351562 -26.722656 -3.164062 -25.039062 -2.953125 -23.59375 C -2.765625 -22.328125 -1.839844 -21.359375 -0.621094 -21.535156 L 0.867188 -21.753906 L -1.328125 -10.320312 L -1.335938 -10.363281 C -1.539062 -9.226562 -1.574219 -8.207031 -1.433594 -7.261719 C -0.757812 -2.65625 3.746094 -0.550781 8.398438 -1.230469 C 14.175781 -2.078125 18.375 -7.074219 19.863281 -14.855469 C 19.90625 -15.1875 19.953125 -15.515625 19.914062 -15.785156 C 19.714844 -17.140625 18.277344 -17.804688 16.878906 -17.601562 C 15.75 -17.433594 14.578125 -16.617188 14.25 -15.09375 Z M 14.25 -15.09375 "/></g></g></g></svg>