<svg xmlns="http://www.w3.org/2000/svg" version="1.1" xmlns:xlink="http://www.w3.org/1999/xlink" xmlns:svgjs="http://svgjs.dev/svgjs" width="1500" height="1000" preserveAspectRatio="none" viewBox="0 0 1500 1000"><g mask="url(&quot;#SvgjsMask41301&quot;)" fill="none"><rect width="1500" height="1000" x="0" y="0" fill="url(&quot;#SvgjsLinearGradient41302&quot;)"></rect><rect width="574.56" height="574.56" clip-path="url(&quot;#SvgjsClipPath41303&quot;)" x="-191.79" y="293.77" fill="url(&quot;#SvgjsPattern41304&quot;)" transform="rotate(155.35, 95.49, 581.05)"></rect><circle r="154.11214000901967" cx="801" cy="644.29" stroke="rgba(0, 243, 255, 1)" stroke-width="2.92" stroke-dasharray="3, 2"></circle><path d="M1242.8 959.3a5.6 5.6 0 1 0 10.35-4.28 5.6 5.6 0 1 0-10.35 4.28zM1257.58 953.18a5.6 5.6 0 1 0 10.35-4.28 5.6 5.6 0 1 0-10.35 4.28zM1272.37 947.07a5.6 5.6 0 1 0 10.35-4.28 5.6 5.6 0 1 0-10.35 4.28zM1287.15 940.95a5.6 5.6 0 1 0 10.35-4.28 5.6 5.6 0 1 0-10.35 4.28zM1219.34 986.31a5.6 5.6 0 1 0 10.35-4.28 5.6 5.6 0 1 0-10.35 4.28zM1234.13 980.2a5.6 5.6 0 1 0 10.35-4.28 5.6 5.6 0 1 0-10.35 4.28zM1248.91 974.08a5.6 5.6 0 1 0 10.35-4.28 5.6 5.6 0 1 0-10.35 4.28zM1263.7 967.97a5.6 5.6 0 1 0 10.35-4.28 5.6 5.6 0 1 0-10.35 4.28z" fill="rgba(0, 243, 255, 1)"></path><path d="M1546.53 459.71000000000004 L1629.8899999999999 453.54L1547.837712619201 416.25271261920096z" stroke="rgba(255, 218, 0, 1)" stroke-width="2.05" stroke-dasharray="2, 2"></path><path d="M119.12 940.41L127.1 950.43 119.08 960.41 127.06 970.43 119.04 980.41 127.02 990.43 119 1000.41M111.12 940.39L119.1 950.41 111.08 960.39 119.06 970.41 111.04 980.39 119.02 990.41 111 1000.39" stroke="rgba(0, 243, 255, 1)" stroke-width="2.55" stroke-dasharray="3, 2"></path><path d="M618.15 155.31a5.6 5.6 0 1 0 2.49-10.92 5.6 5.6 0 1 0-2.49 10.92zM621.71 139.71a5.6 5.6 0 1 0 2.5-10.92 5.6 5.6 0 1 0-2.5 10.92zM625.28 124.11a5.6 5.6 0 1 0 2.5-10.92 5.6 5.6 0 1 0-2.5 10.92zM628.85 108.51a5.6 5.6 0 1 0 2.49-10.91 5.6 5.6 0 1 0-2.49 10.91zM626.61 190.07a5.6 5.6 0 1 0 2.5-10.92 5.6 5.6 0 1 0-2.5 10.92zM630.18 174.47a5.6 5.6 0 1 0 2.5-10.92 5.6 5.6 0 1 0-2.5 10.92zM633.75 158.87a5.6 5.6 0 1 0 2.49-10.91 5.6 5.6 0 1 0-2.49 10.91zM637.31 143.28a5.6 5.6 0 1 0 2.5-10.92 5.6 5.6 0 1 0-2.5 10.92zM635.08 224.83a5.6 5.6 0 1 0 2.49-10.92 5.6 5.6 0 1 0-2.49 10.92zM638.64 209.23a5.6 5.6 0 1 0 2.5-10.92 5.6 5.6 0 1 0-2.5 10.92zM642.21 193.63a5.6 5.6 0 1 0 2.5-10.91 5.6 5.6 0 1 0-2.5 10.91zM645.78 178.04a5.6 5.6 0 1 0 2.49-10.92 5.6 5.6 0 1 0-2.49 10.92z" stroke="rgba(0, 243, 255, 1)" stroke-width="1.56" stroke-dasharray="2, 2"></path><rect width="416" height="416" clip-path="url(&quot;#SvgjsClipPath41305&quot;)" x="227.88" y="394.76" fill="url(&quot;#SvgjsPattern41306&quot;)" transform="rotate(200.62, 435.88, 602.76)"></rect></g><defs><mask id="SvgjsMask41301"><rect width="1500" height="1000" fill="#ffffff"></rect></mask><linearGradient x1="8.33%" y1="-12.5%" x2="91.67%" y2="112.5%" gradientUnits="userSpaceOnUse" id="SvgjsLinearGradient41302"><stop stop-color="#0e2a47" offset="0"></stop><stop stop-color="rgba(0, 69, 158, 1)" offset="1"></stop></linearGradient><pattern x="0" y="0" width="13.68" height="13.68" patternUnits="userSpaceOnUse" id="SvgjsPattern41304"><path d="M6.84 1L6.84 12.68M1 6.84L12.68 6.84" stroke="rgba(255, 218, 0, 1)" fill="none" stroke-width="4.97"></path></pattern><clipPath id="SvgjsClipPath41303"><circle r="143.64" cx="95.49" cy="581.05"></circle></clipPath><pattern x="0" y="0" width="416" height="8.32" patternUnits="userSpaceOnUse" id="SvgjsPattern41306"><rect width="416" height="4.16" x="0" y="0" fill="rgba(255, 218, 0, 1)"></rect><rect width="416" height="4.16" x="0" y="4.16" fill="rgba(0, 0, 0, 0)"></rect></pattern><clipPath id="SvgjsClipPath41305"><circle r="104" cx="435.88" cy="602.76"></circle></clipPath></defs></svg>