<svg xmlns="http://www.w3.org/2000/svg" xmlns:xlink="http://www.w3.org/1999/xlink" width="300" zoomAndPan="magnify" viewBox="0 0 224.87999 112.499997" height="150" preserveAspectRatio="xMidYMid meet" version="1.0"><defs><g/></defs><g fill="#16896d" fill-opacity="0.7686"><g transform="translate(72.884441, 108.411941)"><g><path d="M 12.429688 -31.710938 C 9.089844 -31.222656 5.996094 -28.839844 5.382812 -25.269531 C 5.28125 -24.566406 5.238281 -23.90625 5.332031 -23.265625 C 5.765625 -20.335938 8.113281 -18.40625 10.378906 -16.328125 C 12.246094 -14.640625 13.960938 -13.273438 14.257812 -11.25 C 14.660156 -8.519531 12.507812 -6.515625 10.316406 -6.195312 C 7.882812 -5.875 5.753906 -7.007812 5.4375 -9.40625 C 5.449219 -9.578125 5.421875 -9.746094 5.402344 -9.882812 C 5.121094 -11.804688 3.710938 -12.492188 2.398438 -12.300781 C 1.046875 -12.101562 -0.191406 -10.921875 0.0859375 -9.035156 C 0.703125 -3.648438 5.933594 -0.871094 11.023438 -1.617188 C 16.414062 -2.40625 20.679688 -7.371094 19.917969 -12.5625 C 19.40625 -16.066406 16.683594 -18.421875 14.292969 -20.414062 L 13.824219 -20.792969 C 12.339844 -21.988281 11.105469 -23.355469 10.921875 -24.601562 C 10.707031 -26.085938 12.332031 -26.976562 13.109375 -27.058594 C 14.164062 -27.144531 15.015625 -26.511719 15.757812 -25.449219 C 16.347656 -24.46875 17.292969 -24.125 18.203125 -24.257812 C 19.417969 -24.4375 20.496094 -25.523438 20.269531 -27.074219 C 20.222656 -27.414062 20.140625 -27.710938 19.988281 -28.066406 C 18.828125 -30.582031 15.867188 -32.214844 12.429688 -31.710938 Z M 12.429688 -31.710938 "/></g></g></g><g fill="#16896d" fill-opacity="0.7686"><g transform="translate(95.805183, 105.050748)"><g><path d="M 17.296875 -12.144531 C 16.613281 -8.566406 15.1875 -6.324219 13.5 -6.078125 C 13.03125 -6.007812 12.820312 -6.253906 12.777344 -6.554688 C 12.738281 -6.828125 12.753906 -7.171875 12.8125 -7.492188 C 13.085938 -9.148438 13.195312 -9.578125 13.070312 -10.421875 C 12.953125 -11.230469 12.644531 -11.910156 12.101562 -12.34375 C 12.964844 -13.023438 13.71875 -13.996094 14.027344 -15.417969 C 14.144531 -16.019531 14.183594 -16.679688 14.097656 -17.285156 C 13.714844 -19.882812 11.324219 -21.871094 8.390625 -21.441406 C 7.75 -21.347656 7.25 -21.242188 6.671875 -20.949219 L 7.878906 -27.289062 C 7.976562 -27.785156 8.046875 -28.246094 7.988281 -28.648438 C 7.769531 -30.132812 6.53125 -30.84375 5.351562 -30.671875 C 4.238281 -30.507812 3.402344 -29.628906 3.066406 -27.925781 L -1.792969 -2.355469 C -1.820312 -2.074219 -1.824219 -1.867188 -1.789062 -1.632812 C -1.609375 -0.417969 -0.472656 0.0703125 0.675781 -0.0976562 C 1.886719 -0.277344 3.066406 -1.171875 3.304688 -2.585938 L 4.417969 -9.324219 C 5.222656 -8.753906 5.960938 -8.65625 6.566406 -8.746094 C 7.242188 -8.84375 7.746094 -9.160156 8.03125 -9.339844 C 8.25 -9.472656 8.019531 -8.714844 7.933594 -8.359375 C 7.730469 -7.398438 7.695312 -6.464844 7.816406 -5.621094 C 8.199219 -3.027344 10.078125 -1.476562 13.382812 -1.960938 C 17.933594 -2.628906 20.621094 -6.605469 21.539062 -12.078125 C 21.578125 -12.289062 21.585938 -12.460938 21.5625 -12.632812 C 21.414062 -13.640625 20.28125 -14.09375 19.234375 -13.941406 C 18.324219 -13.808594 17.445312 -13.230469 17.296875 -12.144531 Z M 5.183594 -13.257812 L 5.539062 -15.066406 C 5.964844 -16.371094 6.917969 -17.164062 7.894531 -17.308594 C 8.738281 -17.429688 9.441406 -17.085938 9.550781 -16.34375 C 9.582031 -16.140625 9.578125 -15.933594 9.511719 -15.683594 C 9.320312 -14.863281 8.691406 -14.222656 7.917969 -13.867188 C 7.503906 -13.875 7.121094 -13.886719 6.75 -13.832031 C 6.078125 -13.734375 5.523438 -13.515625 5.183594 -13.257812 Z M 5.183594 -13.257812 "/></g></g></g><g fill="#16896d" fill-opacity="0.7686"><g transform="translate(113.467639, 102.460652)"><g><path d="M 5.710938 -24.21875 C 7.226562 -24.441406 8.292969 -25.871094 8.066406 -27.421875 C 7.84375 -28.9375 6.417969 -29.96875 4.902344 -29.746094 C 3.382812 -29.523438 2.3125 -28.125 2.535156 -26.609375 C 2.765625 -25.058594 4.195312 -23.996094 5.710938 -24.21875 Z M 3.679688 -6.359375 L 5.835938 -17.488281 C 5.90625 -17.945312 6.007812 -18.441406 5.957031 -18.777344 C 5.738281 -20.261719 4.515625 -20.875 3.367188 -20.707031 C 2.324219 -20.550781 1.320312 -19.648438 1.011719 -17.984375 C 0.398438 -14.65625 -0.429688 -10.4375 -1.046875 -7.144531 C -1.152344 -6.441406 -1.289062 -5.492188 -1.203125 -4.917969 C -0.738281 -1.75 2.15625 -0.316406 5.257812 -0.769531 C 8.5625 -1.253906 11.90625 -3.8125 13.242188 -11.136719 C 13.28125 -11.347656 13.285156 -11.554688 13.253906 -11.757812 C 13.101562 -12.800781 11.996094 -13.292969 10.984375 -13.144531 C 10.074219 -13.011719 9.234375 -12.40625 8.980469 -11.300781 C 8.039062 -6.6875 6.457031 -5.042969 5.109375 -4.847656 C 4.332031 -4.734375 3.753906 -5.164062 3.660156 -5.804688 C 3.632812 -5.972656 3.644531 -6.148438 3.679688 -6.359375 Z M 3.679688 -6.359375 "/></g></g></g><g fill="#16896d" fill-opacity="0.7686"><g transform="translate(122.770764, 101.096403)"><g><path d="M 3.8125 -6.171875 L 7.886719 -27.703125 C 7.960938 -28.128906 7.96875 -28.542969 7.917969 -28.878906 C 7.730469 -30.160156 6.394531 -30.824219 5.382812 -30.675781 C 4.101562 -30.488281 3.363281 -29.65625 3.046875 -28.0625 L -1.027344 -7.011719 C -1.183594 -6.195312 -1.214844 -5.46875 -1.113281 -4.761719 C -0.65625 -1.660156 2.15625 -0.316406 5.125 -0.75 C 8.324219 -1.222656 12.046875 -3.796875 13.375 -11.15625 C 13.410156 -11.402344 13.410156 -11.640625 13.378906 -11.84375 C 13.222656 -12.921875 12.164062 -13.558594 11.117188 -13.40625 C 10.277344 -13.28125 9.441406 -12.644531 9.152344 -11.328125 C 8.226562 -7.058594 6.523438 -5.054688 4.941406 -4.820312 C 4.265625 -4.722656 3.835938 -5.074219 3.761719 -5.578125 C 3.742188 -5.714844 3.773438 -5.960938 3.8125 -6.171875 Z M 3.8125 -6.171875 "/></g></g></g><g fill="#16896d" fill-opacity="0.7686"><g transform="translate(132.175009, 99.717326)"><g><path d="M 3.8125 -6.171875 L 7.886719 -27.703125 C 7.960938 -28.128906 7.96875 -28.542969 7.917969 -28.878906 C 7.730469 -30.160156 6.394531 -30.824219 5.382812 -30.675781 C 4.101562 -30.488281 3.363281 -29.65625 3.046875 -28.0625 L -1.027344 -7.011719 C -1.183594 -6.195312 -1.214844 -5.46875 -1.113281 -4.761719 C -0.65625 -1.660156 2.15625 -0.316406 5.125 -0.75 C 8.324219 -1.222656 12.046875 -3.796875 13.375 -11.15625 C 13.410156 -11.402344 13.410156 -11.640625 13.378906 -11.84375 C 13.222656 -12.921875 12.164062 -13.558594 11.117188 -13.40625 C 10.277344 -13.28125 9.441406 -12.644531 9.152344 -11.328125 C 8.226562 -7.058594 6.523438 -5.054688 4.941406 -4.820312 C 4.265625 -4.722656 3.835938 -5.074219 3.761719 -5.578125 C 3.742188 -5.714844 3.773438 -5.960938 3.8125 -6.171875 Z M 3.8125 -6.171875 "/></g></g></g><g fill="#16896d" fill-opacity="0.7686"><g transform="translate(141.579254, 98.338248)"><g><path d="M 16.5 -12.164062 C 15.984375 -10.058594 15.003906 -8.5 13.589844 -7.363281 C 13.589844 -7.8125 13.601562 -8.226562 13.535156 -8.664062 C 13.25 -10.621094 11.933594 -12.320312 10.753906 -13.765625 C 9.914062 -14.8125 9.070312 -15.859375 8.785156 -16.886719 C 9.667969 -17.429688 10.25 -18.617188 10.101562 -19.628906 C 9.890625 -21.078125 8.582031 -22.261719 6.894531 -22.015625 C 5.613281 -21.828125 4.425781 -21 3.980469 -19.589844 C 3.039062 -16.835938 2.003906 -14.03125 1.027344 -11.308594 C -1.148438 -10.402344 -1.882812 -7.679688 -1.566406 -5.519531 C -1.082031 -2.21875 2.597656 -0.140625 8.5625 -1.015625 C 14.429688 -1.875 19.359375 -4.871094 20.722656 -12.027344 C 20.769531 -12.171875 20.742188 -12.339844 20.722656 -12.472656 C 20.582031 -13.449219 19.363281 -13.996094 18.285156 -13.835938 C 17.476562 -13.71875 16.726562 -13.195312 16.5 -12.164062 Z M 5.679688 -11.507812 L 5.890625 -12.191406 C 7.078125 -11.128906 8.125 -9.628906 8.359375 -8.042969 C 8.589844 -6.460938 7.941406 -5.019531 6.164062 -4.691406 C 5.019531 -4.523438 3.933594 -4.878906 3.433594 -5.703125 C 3.714844 -5.675781 3.984375 -5.714844 4.21875 -5.75 C 6.171875 -6.035156 7.078125 -7.855469 6.835938 -9.507812 C 6.722656 -10.28125 6.339844 -11.019531 5.679688 -11.507812 Z M 5.679688 -11.507812 "/></g></g></g><g fill="#7effe0" fill-opacity="1"><g transform="translate(71.929284, 107.500529)"><g><path d="M 12.429688 -31.710938 C 9.089844 -31.222656 5.996094 -28.839844 5.382812 -25.269531 C 5.28125 -24.566406 5.238281 -23.90625 5.332031 -23.265625 C 5.765625 -20.335938 8.113281 -18.40625 10.378906 -16.328125 C 12.246094 -14.640625 13.960938 -13.273438 14.257812 -11.25 C 14.660156 -8.519531 12.507812 -6.515625 10.316406 -6.195312 C 7.882812 -5.875 5.753906 -7.007812 5.4375 -9.40625 C 5.449219 -9.578125 5.421875 -9.746094 5.402344 -9.882812 C 5.121094 -11.804688 3.710938 -12.492188 2.398438 -12.300781 C 1.046875 -12.101562 -0.191406 -10.921875 0.0859375 -9.035156 C 0.703125 -3.648438 5.933594 -0.871094 11.023438 -1.617188 C 16.414062 -2.40625 20.679688 -7.371094 19.917969 -12.5625 C 19.40625 -16.066406 16.683594 -18.421875 14.292969 -20.414062 L 13.824219 -20.792969 C 12.339844 -21.988281 11.105469 -23.355469 10.921875 -24.601562 C 10.707031 -26.085938 12.332031 -26.976562 13.109375 -27.058594 C 14.164062 -27.144531 15.015625 -26.511719 15.757812 -25.449219 C 16.347656 -24.46875 17.292969 -24.125 18.203125 -24.257812 C 19.417969 -24.4375 20.496094 -25.523438 20.269531 -27.074219 C 20.222656 -27.414062 20.140625 -27.710938 19.988281 -28.066406 C 18.828125 -30.582031 15.867188 -32.214844 12.429688 -31.710938 Z M 12.429688 -31.710938 "/></g></g></g><g fill="#7effe0" fill-opacity="1"><g transform="translate(94.850026, 104.139336)"><g><path d="M 17.296875 -12.144531 C 16.613281 -8.566406 15.1875 -6.324219 13.5 -6.078125 C 13.03125 -6.007812 12.820312 -6.253906 12.777344 -6.554688 C 12.738281 -6.828125 12.753906 -7.171875 12.8125 -7.492188 C 13.085938 -9.148438 13.195312 -9.578125 13.070312 -10.421875 C 12.953125 -11.230469 12.644531 -11.910156 12.101562 -12.34375 C 12.964844 -13.023438 13.71875 -13.996094 14.027344 -15.417969 C 14.144531 -16.019531 14.183594 -16.679688 14.097656 -17.285156 C 13.714844 -19.882812 11.324219 -21.871094 8.390625 -21.441406 C 7.75 -21.347656 7.25 -21.242188 6.671875 -20.949219 L 7.878906 -27.289062 C 7.976562 -27.785156 8.046875 -28.246094 7.988281 -28.648438 C 7.769531 -30.132812 6.53125 -30.84375 5.351562 -30.671875 C 4.238281 -30.507812 3.402344 -29.628906 3.066406 -27.925781 L -1.792969 -2.355469 C -1.820312 -2.074219 -1.824219 -1.867188 -1.789062 -1.632812 C -1.609375 -0.417969 -0.472656 0.0703125 0.675781 -0.0976562 C 1.886719 -0.277344 3.066406 -1.171875 3.304688 -2.585938 L 4.417969 -9.324219 C 5.222656 -8.753906 5.960938 -8.65625 6.566406 -8.746094 C 7.242188 -8.84375 7.746094 -9.160156 8.03125 -9.339844 C 8.25 -9.472656 8.019531 -8.714844 7.933594 -8.359375 C 7.730469 -7.398438 7.695312 -6.464844 7.816406 -5.621094 C 8.199219 -3.027344 10.078125 -1.476562 13.382812 -1.960938 C 17.933594 -2.628906 20.621094 -6.605469 21.539062 -12.078125 C 21.578125 -12.289062 21.585938 -12.460938 21.5625 -12.632812 C 21.414062 -13.640625 20.28125 -14.09375 19.234375 -13.941406 C 18.324219 -13.808594 17.445312 -13.230469 17.296875 -12.144531 Z M 5.183594 -13.257812 L 5.539062 -15.066406 C 5.964844 -16.371094 6.917969 -17.164062 7.894531 -17.308594 C 8.738281 -17.429688 9.441406 -17.085938 9.550781 -16.34375 C 9.582031 -16.140625 9.578125 -15.933594 9.511719 -15.683594 C 9.320312 -14.863281 8.691406 -14.222656 7.917969 -13.867188 C 7.503906 -13.875 7.121094 -13.886719 6.75 -13.832031 C 6.078125 -13.734375 5.523438 -13.515625 5.183594 -13.257812 Z M 5.183594 -13.257812 "/></g></g></g><g fill="#7effe0" fill-opacity="1"><g transform="translate(112.512482, 101.54924)"><g><path d="M 5.710938 -24.21875 C 7.226562 -24.441406 8.292969 -25.871094 8.066406 -27.421875 C 7.84375 -28.9375 6.417969 -29.96875 4.902344 -29.746094 C 3.382812 -29.523438 2.3125 -28.125 2.535156 -26.609375 C 2.765625 -25.058594 4.195312 -23.996094 5.710938 -24.21875 Z M 3.679688 -6.359375 L 5.835938 -17.488281 C 5.90625 -17.945312 6.007812 -18.441406 5.957031 -18.777344 C 5.738281 -20.261719 4.515625 -20.875 3.367188 -20.707031 C 2.324219 -20.550781 1.320312 -19.648438 1.011719 -17.984375 C 0.398438 -14.65625 -0.429688 -10.4375 -1.046875 -7.144531 C -1.152344 -6.441406 -1.289062 -5.492188 -1.203125 -4.917969 C -0.738281 -1.75 2.15625 -0.316406 5.257812 -0.769531 C 8.5625 -1.253906 11.90625 -3.8125 13.242188 -11.136719 C 13.28125 -11.347656 13.285156 -11.554688 13.253906 -11.757812 C 13.101562 -12.800781 11.996094 -13.292969 10.984375 -13.144531 C 10.074219 -13.011719 9.234375 -12.40625 8.980469 -11.300781 C 8.039062 -6.6875 6.457031 -5.042969 5.109375 -4.847656 C 4.332031 -4.734375 3.753906 -5.164062 3.660156 -5.804688 C 3.632812 -5.972656 3.644531 -6.148438 3.679688 -6.359375 Z M 3.679688 -6.359375 "/></g></g></g><g fill="#7effe0" fill-opacity="1"><g transform="translate(121.815607, 100.184991)"><g><path d="M 3.8125 -6.171875 L 7.886719 -27.703125 C 7.960938 -28.128906 7.96875 -28.542969 7.917969 -28.878906 C 7.730469 -30.160156 6.394531 -30.824219 5.382812 -30.675781 C 4.101562 -30.488281 3.363281 -29.65625 3.046875 -28.0625 L -1.027344 -7.011719 C -1.183594 -6.195312 -1.214844 -5.46875 -1.113281 -4.761719 C -0.65625 -1.660156 2.15625 -0.316406 5.125 -0.75 C 8.324219 -1.222656 12.046875 -3.796875 13.375 -11.15625 C 13.410156 -11.402344 13.410156 -11.640625 13.378906 -11.84375 C 13.222656 -12.921875 12.164062 -13.558594 11.117188 -13.40625 C 10.277344 -13.28125 9.441406 -12.644531 9.152344 -11.328125 C 8.226562 -7.058594 6.523438 -5.054688 4.941406 -4.820312 C 4.265625 -4.722656 3.835938 -5.074219 3.761719 -5.578125 C 3.742188 -5.714844 3.773438 -5.960938 3.8125 -6.171875 Z M 3.8125 -6.171875 "/></g></g></g><g fill="#7effe0" fill-opacity="1"><g transform="translate(131.219852, 98.805913)"><g><path d="M 3.8125 -6.171875 L 7.886719 -27.703125 C 7.960938 -28.128906 7.96875 -28.542969 7.917969 -28.878906 C 7.730469 -30.160156 6.394531 -30.824219 5.382812 -30.675781 C 4.101562 -30.488281 3.363281 -29.65625 3.046875 -28.0625 L -1.027344 -7.011719 C -1.183594 -6.195312 -1.214844 -5.46875 -1.113281 -4.761719 C -0.65625 -1.660156 2.15625 -0.316406 5.125 -0.75 C 8.324219 -1.222656 12.046875 -3.796875 13.375 -11.15625 C 13.410156 -11.402344 13.410156 -11.640625 13.378906 -11.84375 C 13.222656 -12.921875 12.164062 -13.558594 11.117188 -13.40625 C 10.277344 -13.28125 9.441406 -12.644531 9.152344 -11.328125 C 8.226562 -7.058594 6.523438 -5.054688 4.941406 -4.820312 C 4.265625 -4.722656 3.835938 -5.074219 3.761719 -5.578125 C 3.742188 -5.714844 3.773438 -5.960938 3.8125 -6.171875 Z M 3.8125 -6.171875 "/></g></g></g><g fill="#7effe0" fill-opacity="1"><g transform="translate(140.624097, 97.426836)"><g><path d="M 16.5 -12.164062 C 15.984375 -10.058594 15.003906 -8.5 13.589844 -7.363281 C 13.589844 -7.8125 13.601562 -8.226562 13.535156 -8.664062 C 13.25 -10.621094 11.933594 -12.320312 10.753906 -13.765625 C 9.914062 -14.8125 9.070312 -15.859375 8.785156 -16.886719 C 9.667969 -17.429688 10.25 -18.617188 10.101562 -19.628906 C 9.890625 -21.078125 8.582031 -22.261719 6.894531 -22.015625 C 5.613281 -21.828125 4.425781 -21 3.980469 -19.589844 C 3.039062 -16.835938 2.003906 -14.03125 1.027344 -11.308594 C -1.148438 -10.402344 -1.882812 -7.679688 -1.566406 -5.519531 C -1.082031 -2.21875 2.597656 -0.140625 8.5625 -1.015625 C 14.429688 -1.875 19.359375 -4.871094 20.722656 -12.027344 C 20.769531 -12.171875 20.742188 -12.339844 20.722656 -12.472656 C 20.582031 -13.449219 19.363281 -13.996094 18.285156 -13.835938 C 17.476562 -13.71875 16.726562 -13.195312 16.5 -12.164062 Z M 5.679688 -11.507812 L 5.890625 -12.191406 C 7.078125 -11.128906 8.125 -9.628906 8.359375 -8.042969 C 8.589844 -6.460938 7.941406 -5.019531 6.164062 -4.691406 C 5.019531 -4.523438 3.933594 -4.878906 3.433594 -5.703125 C 3.714844 -5.675781 3.984375 -5.714844 4.21875 -5.75 C 6.171875 -6.035156 7.078125 -7.855469 6.835938 -9.507812 C 6.722656 -10.28125 6.339844 -11.019531 5.679688 -11.507812 Z M 5.679688 -11.507812 "/></g></g></g></svg>