<svg xmlns="http://www.w3.org/2000/svg" xmlns:xlink="http://www.w3.org/1999/xlink" width="40" zoomAndPan="magnify" viewBox="0 0 30 30.000001" height="40" preserveAspectRatio="xMidYMid meet" version="1.0"><defs><g/></defs><g fill="#16896d" fill-opacity="0.7686"><g transform="translate(4.920484, 15.148786)"><g><path d="M 2.1875 -1.261719 L 2.742188 -4.003906 C 2.757812 -4.074219 2.757812 -4.140625 2.75 -4.191406 C 2.714844 -4.414062 2.53125 -4.511719 2.347656 -4.484375 C 2.175781 -4.460938 2.015625 -4.316406 1.964844 -4.066406 L 1.449219 -1.515625 C 1.367188 -1.125 1.085938 -0.789062 0.835938 -0.753906 C 0.726562 -0.738281 0.65625 -0.800781 0.640625 -0.910156 C 0.632812 -0.953125 0.632812 -1 0.640625 -1.054688 L 1.1875 -3.777344 C 1.203125 -3.84375 1.203125 -3.90625 1.195312 -3.957031 C 1.160156 -4.183594 0.96875 -4.285156 0.789062 -4.257812 C 0.613281 -4.230469 0.453125 -4.089844 0.40625 -3.839844 L -0.144531 -1.046875 C -0.167969 -0.9375 -0.164062 -0.835938 -0.152344 -0.738281 C -0.0859375 -0.296875 0.3125 -0.046875 0.773438 -0.113281 C 1.082031 -0.160156 1.390625 -0.347656 1.589844 -0.609375 C 1.78125 -0.40625 2.101562 -0.308594 2.457031 -0.359375 C 3.003906 -0.441406 3.636719 -0.859375 3.800781 -1.667969 L 4.320312 -4.234375 C 4.335938 -4.304688 4.335938 -4.371094 4.328125 -4.421875 C 4.292969 -4.648438 4.109375 -4.742188 3.925781 -4.71875 C 3.753906 -4.691406 3.59375 -4.550781 3.542969 -4.296875 L 3.027344 -1.707031 C 2.9375 -1.25 2.664062 -0.992188 2.425781 -0.957031 C 2.292969 -0.9375 2.195312 -1.003906 2.179688 -1.121094 C 2.171875 -1.164062 2.175781 -1.207031 2.1875 -1.261719 Z M 2.1875 -1.261719 "/></g></g></g><g fill="#16896d" fill-opacity="0.7686"><g transform="translate(9.380932, 14.494688)"><g><path d="M 2.171875 -1.664062 C 2.042969 -1.089844 1.585938 -0.800781 1.1875 -0.742188 C 0.847656 -0.691406 0.609375 -0.824219 0.578125 -1.039062 C 0.570312 -1.082031 0.570312 -1.125 0.582031 -1.171875 L 0.605469 -1.265625 C 0.753906 -1.203125 0.929688 -1.171875 1.117188 -1.199219 C 1.542969 -1.261719 1.875 -1.582031 1.941406 -2.019531 C 1.953125 -2.113281 1.953125 -2.203125 1.941406 -2.285156 C 1.875 -2.726562 1.476562 -3.015625 0.949219 -2.941406 C 0.53125 -2.878906 0.160156 -2.574219 0.0664062 -2.085938 L -0.09375 -1.246094 C -0.113281 -1.128906 -0.121094 -1.011719 -0.105469 -0.90625 C -0.0234375 -0.351562 0.550781 -0.0820312 1.234375 -0.179688 C 1.882812 -0.277344 2.574219 -0.703125 2.75 -1.640625 C 2.757812 -1.679688 2.757812 -1.710938 2.753906 -1.738281 C 2.734375 -1.882812 2.589844 -1.945312 2.453125 -1.925781 C 2.320312 -1.90625 2.191406 -1.816406 2.171875 -1.664062 Z M 1.015625 -2.386719 C 1.144531 -2.40625 1.246094 -2.308594 1.265625 -2.175781 C 1.269531 -2.136719 1.269531 -2.101562 1.261719 -2.058594 C 1.238281 -1.898438 1.105469 -1.824219 0.964844 -1.800781 C 0.878906 -1.789062 0.785156 -1.792969 0.714844 -1.824219 L 0.773438 -2.117188 C 0.800781 -2.269531 0.90625 -2.371094 1.015625 -2.386719 Z M 1.015625 -2.386719 "/></g></g></g><g fill="#16896d" fill-opacity="0.7686"><g transform="translate(11.594806, 14.170036)"><g><path d="M 0.527344 -0.855469 L 1.09375 -3.839844 C 1.101562 -3.898438 1.105469 -3.953125 1.097656 -4 C 1.070312 -4.179688 0.886719 -4.269531 0.746094 -4.25 C 0.570312 -4.226562 0.464844 -4.109375 0.421875 -3.886719 L -0.140625 -0.972656 C -0.164062 -0.859375 -0.167969 -0.757812 -0.152344 -0.660156 C -0.0898438 -0.230469 0.300781 -0.0429688 0.710938 -0.105469 C 1.152344 -0.167969 1.667969 -0.527344 1.851562 -1.546875 C 1.859375 -1.578125 1.859375 -1.613281 1.855469 -1.640625 C 1.832031 -1.789062 1.683594 -1.878906 1.539062 -1.859375 C 1.421875 -1.839844 1.308594 -1.75 1.269531 -1.570312 C 1.140625 -0.976562 0.902344 -0.699219 0.683594 -0.667969 C 0.589844 -0.65625 0.53125 -0.703125 0.519531 -0.773438 C 0.519531 -0.792969 0.523438 -0.824219 0.527344 -0.855469 Z M 0.527344 -0.855469 "/></g></g></g><g fill="#16896d" fill-opacity="0.7686"><g transform="translate(12.89791, 13.978943)"><g><path d="M 2.058594 -1.71875 C 1.90625 -1.082031 1.488281 -0.789062 1.132812 -0.738281 C 0.808594 -0.691406 0.578125 -0.847656 0.542969 -1.085938 C 0.535156 -1.136719 0.535156 -1.195312 0.546875 -1.257812 L 0.710938 -2.109375 C 0.738281 -2.226562 0.820312 -2.308594 0.894531 -2.320312 C 0.988281 -2.335938 1.042969 -2.285156 1.054688 -2.207031 C 1.0625 -2.15625 1.050781 -2.097656 1.027344 -2.027344 C 1.011719 -1.976562 1.003906 -1.925781 1.011719 -1.878906 C 1.035156 -1.71875 1.210938 -1.613281 1.371094 -1.636719 C 1.507812 -1.65625 1.640625 -1.761719 1.691406 -1.988281 C 1.722656 -2.121094 1.722656 -2.238281 1.707031 -2.34375 C 1.644531 -2.785156 1.242188 -2.984375 0.839844 -2.921875 C 0.472656 -2.871094 0.105469 -2.597656 0.0078125 -2.082031 L -0.140625 -1.257812 C -0.164062 -1.140625 -0.164062 -1.027344 -0.148438 -0.921875 C -0.0703125 -0.386719 0.453125 -0.0664062 1.140625 -0.167969 C 1.832031 -0.269531 2.457031 -0.761719 2.628906 -1.65625 C 2.640625 -1.6875 2.636719 -1.722656 2.632812 -1.75 C 2.613281 -1.898438 2.453125 -1.972656 2.308594 -1.953125 C 2.191406 -1.933594 2.085938 -1.859375 2.058594 -1.71875 Z M 2.058594 -1.71875 "/></g></g></g><g fill="#16896d" fill-opacity="0.7686"><g transform="translate(14.985682, 13.672784)"><g><path d="M 1.832031 -1.265625 C 1.832031 -1.261719 1.820312 -1.335938 1.789062 -1.421875 C 1.820312 -1.449219 1.847656 -1.492188 1.867188 -1.539062 C 1.929688 -1.667969 2.011719 -2.09375 1.984375 -2.28125 C 1.914062 -2.757812 1.476562 -3.015625 0.972656 -2.941406 C 0.53125 -2.878906 0.152344 -2.574219 0.0625 -2.136719 L -0.136719 -1.125 C -0.160156 -1.003906 -0.164062 -0.882812 -0.148438 -0.78125 C -0.0742188 -0.289062 0.386719 -0.0585938 0.863281 -0.125 C 1.226562 -0.179688 1.542969 -0.34375 1.691406 -0.710938 C 1.777344 -0.699219 1.878906 -0.699219 1.976562 -0.714844 C 2.527344 -0.796875 2.902344 -1.25 2.992188 -1.765625 C 2.996094 -1.816406 3 -1.867188 2.992188 -1.910156 C 2.96875 -2.082031 2.828125 -2.160156 2.691406 -2.140625 C 2.566406 -2.121094 2.445312 -2.027344 2.417969 -1.847656 C 2.359375 -1.542969 2.175781 -1.3125 1.898438 -1.269531 C 1.878906 -1.269531 1.851562 -1.265625 1.832031 -1.265625 Z M 1.292969 -1.921875 C 1.285156 -1.878906 1.277344 -1.839844 1.277344 -1.800781 C 1.015625 -1.789062 0.816406 -1.546875 0.859375 -1.265625 C 0.886719 -1.109375 0.980469 -1.035156 1.078125 -0.972656 C 1.042969 -0.800781 0.917969 -0.703125 0.773438 -0.679688 C 0.589844 -0.65625 0.527344 -0.757812 0.511719 -0.871094 C 0.5 -0.960938 0.507812 -1.046875 0.519531 -1.097656 L 0.714844 -2.09375 C 0.746094 -2.257812 0.898438 -2.371094 1.042969 -2.390625 C 1.1875 -2.410156 1.296875 -2.328125 1.3125 -2.21875 C 1.324219 -2.136719 1.3125 -2.023438 1.292969 -1.921875 Z M 1.292969 -1.921875 "/></g></g></g><g fill="#16896d" fill-opacity="0.7686"><g transform="translate(17.423746, 13.315256)"><g><path d="M 3.910156 -2.171875 C 3.78125 -2.152344 3.65625 -2.0625 3.632812 -1.90625 C 3.507812 -1.316406 3.285156 -1.050781 3.066406 -1.015625 C 2.972656 -1.003906 2.917969 -1.054688 2.90625 -1.121094 C 2.90625 -1.144531 2.902344 -1.167969 2.90625 -1.191406 L 3.144531 -2.335938 C 3.160156 -2.429688 3.164062 -2.523438 3.152344 -2.605469 C 3.09375 -3 2.707031 -3.199219 2.285156 -3.136719 C 2.117188 -3.109375 1.878906 -3.03125 1.6875 -2.828125 C 1.574219 -2.925781 1.40625 -3.007812 1.132812 -2.96875 C 0.941406 -2.9375 0.839844 -2.867188 0.761719 -2.800781 C 0.699219 -2.863281 0.59375 -2.886719 0.488281 -2.871094 C 0.34375 -2.851562 0.207031 -2.757812 0.167969 -2.617188 L -0.261719 -0.351562 C -0.269531 -0.308594 -0.269531 -0.269531 -0.265625 -0.238281 C -0.238281 -0.0664062 -0.0742188 0.0117188 0.0898438 -0.0117188 C 0.246094 -0.0351562 0.394531 -0.152344 0.429688 -0.347656 L 0.753906 -2.027344 C 0.820312 -2.242188 0.953125 -2.378906 1.09375 -2.398438 C 1.1875 -2.410156 1.261719 -2.371094 1.273438 -2.285156 C 1.277344 -2.261719 1.277344 -2.230469 1.265625 -2.195312 L 0.941406 -0.597656 C 0.929688 -0.53125 0.921875 -0.46875 0.929688 -0.417969 C 0.957031 -0.242188 1.113281 -0.164062 1.269531 -0.1875 C 1.425781 -0.207031 1.578125 -0.328125 1.621094 -0.539062 L 1.933594 -2.136719 C 1.984375 -2.378906 2.140625 -2.550781 2.292969 -2.574219 C 2.378906 -2.585938 2.453125 -2.539062 2.464844 -2.453125 C 2.46875 -2.421875 2.46875 -2.390625 2.460938 -2.34375 L 2.25 -1.328125 C 2.226562 -1.214844 2.222656 -1.105469 2.238281 -1.003906 C 2.300781 -0.582031 2.6875 -0.394531 3.097656 -0.453125 C 3.558594 -0.523438 4.027344 -0.894531 4.214844 -1.878906 C 4.21875 -1.910156 4.222656 -1.945312 4.21875 -1.976562 C 4.195312 -2.128906 4.046875 -2.191406 3.910156 -2.171875 Z M 3.910156 -2.171875 "/></g></g></g><g fill="#16896d" fill-opacity="0.7686"><g transform="translate(21.094858, 12.776909)"><g><path d="M 2.171875 -1.664062 C 2.042969 -1.089844 1.585938 -0.800781 1.1875 -0.742188 C 0.847656 -0.691406 0.609375 -0.824219 0.578125 -1.039062 C 0.570312 -1.082031 0.570312 -1.125 0.582031 -1.171875 L 0.605469 -1.265625 C 0.753906 -1.203125 0.929688 -1.171875 1.117188 -1.199219 C 1.542969 -1.261719 1.875 -1.582031 1.941406 -2.019531 C 1.953125 -2.113281 1.953125 -2.203125 1.941406 -2.285156 C 1.875 -2.726562 1.476562 -3.015625 0.949219 -2.941406 C 0.53125 -2.878906 0.160156 -2.574219 0.0664062 -2.085938 L -0.09375 -1.246094 C -0.113281 -1.128906 -0.121094 -1.011719 -0.105469 -0.90625 C -0.0234375 -0.351562 0.550781 -0.0820312 1.234375 -0.179688 C 1.882812 -0.277344 2.574219 -0.703125 2.75 -1.640625 C 2.757812 -1.679688 2.757812 -1.710938 2.753906 -1.738281 C 2.734375 -1.882812 2.589844 -1.945312 2.453125 -1.925781 C 2.320312 -1.90625 2.191406 -1.816406 2.171875 -1.664062 Z M 1.015625 -2.386719 C 1.144531 -2.40625 1.246094 -2.308594 1.265625 -2.175781 C 1.269531 -2.136719 1.269531 -2.101562 1.261719 -2.058594 C 1.238281 -1.898438 1.105469 -1.824219 0.964844 -1.800781 C 0.878906 -1.789062 0.785156 -1.792969 0.714844 -1.824219 L 0.773438 -2.117188 C 0.800781 -2.269531 0.90625 -2.371094 1.015625 -2.386719 Z M 1.015625 -2.386719 "/></g></g></g><g fill="#16896d" fill-opacity="0.7686"><g transform="translate(23.308731, 12.452257)"><g><path d="M 1.757812 -1.546875 L 2.398438 -4.246094 C 2.472656 -4.8125 1.78125 -4.808594 1.6875 -4.304688 L 1.152344 -1.644531 C 1.046875 -1.246094 1.660156 -1.105469 1.757812 -1.546875 Z M 1.214844 -0.960938 C 1.003906 -0.929688 0.855469 -0.734375 0.886719 -0.519531 C 0.917969 -0.3125 1.117188 -0.164062 1.328125 -0.195312 C 1.542969 -0.226562 1.6875 -0.425781 1.65625 -0.632812 C 1.625 -0.847656 1.429688 -0.992188 1.214844 -0.960938 Z M 1.214844 -0.960938 "/></g></g></g><g fill="#7effe0" fill-opacity="1"><g transform="translate(4.788145, 15.022507)"><g><path d="M 2.1875 -1.261719 L 2.742188 -4.003906 C 2.757812 -4.074219 2.757812 -4.140625 2.75 -4.191406 C 2.714844 -4.414062 2.53125 -4.511719 2.347656 -4.484375 C 2.175781 -4.460938 2.015625 -4.316406 1.964844 -4.066406 L 1.449219 -1.515625 C 1.367188 -1.125 1.085938 -0.789062 0.835938 -0.753906 C 0.726562 -0.738281 0.65625 -0.800781 0.640625 -0.910156 C 0.632812 -0.953125 0.632812 -1 0.640625 -1.054688 L 1.1875 -3.777344 C 1.203125 -3.84375 1.203125 -3.90625 1.195312 -3.957031 C 1.160156 -4.183594 0.96875 -4.285156 0.789062 -4.257812 C 0.613281 -4.230469 0.453125 -4.089844 0.40625 -3.839844 L -0.144531 -1.046875 C -0.167969 -0.9375 -0.164062 -0.835938 -0.152344 -0.738281 C -0.0859375 -0.296875 0.3125 -0.046875 0.773438 -0.113281 C 1.082031 -0.160156 1.390625 -0.347656 1.589844 -0.609375 C 1.78125 -0.40625 2.101562 -0.308594 2.457031 -0.359375 C 3.003906 -0.441406 3.636719 -0.859375 3.800781 -1.667969 L 4.320312 -4.234375 C 4.335938 -4.304688 4.335938 -4.371094 4.328125 -4.421875 C 4.292969 -4.648438 4.109375 -4.742188 3.925781 -4.71875 C 3.753906 -4.691406 3.59375 -4.550781 3.542969 -4.296875 L 3.027344 -1.707031 C 2.9375 -1.25 2.664062 -0.992188 2.425781 -0.957031 C 2.292969 -0.9375 2.195312 -1.003906 2.179688 -1.121094 C 2.171875 -1.164062 2.175781 -1.207031 2.1875 -1.261719 Z M 2.1875 -1.261719 "/></g></g></g><g fill="#7effe0" fill-opacity="1"><g transform="translate(9.248592, 14.368409)"><g><path d="M 2.171875 -1.664062 C 2.042969 -1.089844 1.585938 -0.800781 1.1875 -0.742188 C 0.847656 -0.691406 0.609375 -0.824219 0.578125 -1.039062 C 0.570312 -1.082031 0.570312 -1.125 0.582031 -1.171875 L 0.605469 -1.265625 C 0.753906 -1.203125 0.929688 -1.171875 1.117188 -1.199219 C 1.542969 -1.261719 1.875 -1.582031 1.941406 -2.019531 C 1.953125 -2.113281 1.953125 -2.203125 1.941406 -2.285156 C 1.875 -2.726562 1.476562 -3.015625 0.949219 -2.941406 C 0.53125 -2.878906 0.160156 -2.574219 0.0664062 -2.085938 L -0.09375 -1.246094 C -0.113281 -1.128906 -0.121094 -1.011719 -0.105469 -0.90625 C -0.0234375 -0.351562 0.550781 -0.0820312 1.234375 -0.179688 C 1.882812 -0.277344 2.574219 -0.703125 2.75 -1.640625 C 2.757812 -1.679688 2.757812 -1.710938 2.753906 -1.738281 C 2.734375 -1.882812 2.589844 -1.945312 2.453125 -1.925781 C 2.320312 -1.90625 2.191406 -1.816406 2.171875 -1.664062 Z M 1.015625 -2.386719 C 1.144531 -2.40625 1.246094 -2.308594 1.265625 -2.175781 C 1.269531 -2.136719 1.269531 -2.101562 1.261719 -2.058594 C 1.238281 -1.898438 1.105469 -1.824219 0.964844 -1.800781 C 0.878906 -1.789062 0.785156 -1.792969 0.714844 -1.824219 L 0.773438 -2.117188 C 0.800781 -2.269531 0.90625 -2.371094 1.015625 -2.386719 Z M 1.015625 -2.386719 "/></g></g></g><g fill="#7effe0" fill-opacity="1"><g transform="translate(11.462466, 14.043757)"><g><path d="M 0.527344 -0.855469 L 1.09375 -3.839844 C 1.101562 -3.898438 1.105469 -3.953125 1.097656 -4 C 1.070312 -4.179688 0.886719 -4.269531 0.746094 -4.25 C 0.570312 -4.226562 0.464844 -4.109375 0.421875 -3.886719 L -0.140625 -0.972656 C -0.164062 -0.859375 -0.167969 -0.757812 -0.152344 -0.660156 C -0.0898438 -0.230469 0.300781 -0.0429688 0.710938 -0.105469 C 1.152344 -0.167969 1.667969 -0.527344 1.851562 -1.546875 C 1.859375 -1.578125 1.859375 -1.613281 1.855469 -1.640625 C 1.832031 -1.789062 1.683594 -1.878906 1.539062 -1.859375 C 1.421875 -1.839844 1.308594 -1.75 1.269531 -1.570312 C 1.140625 -0.976562 0.902344 -0.699219 0.683594 -0.667969 C 0.589844 -0.65625 0.53125 -0.703125 0.519531 -0.773438 C 0.519531 -0.792969 0.523438 -0.824219 0.527344 -0.855469 Z M 0.527344 -0.855469 "/></g></g></g><g fill="#7effe0" fill-opacity="1"><g transform="translate(12.76557, 13.852665)"><g><path d="M 2.058594 -1.71875 C 1.90625 -1.082031 1.488281 -0.789062 1.132812 -0.738281 C 0.808594 -0.691406 0.578125 -0.847656 0.542969 -1.085938 C 0.535156 -1.136719 0.535156 -1.195312 0.546875 -1.257812 L 0.710938 -2.109375 C 0.738281 -2.226562 0.820312 -2.308594 0.894531 -2.320312 C 0.988281 -2.335938 1.042969 -2.285156 1.054688 -2.207031 C 1.0625 -2.15625 1.050781 -2.097656 1.027344 -2.027344 C 1.011719 -1.976562 1.003906 -1.925781 1.011719 -1.878906 C 1.035156 -1.71875 1.210938 -1.613281 1.371094 -1.636719 C 1.507812 -1.65625 1.640625 -1.761719 1.691406 -1.988281 C 1.722656 -2.121094 1.722656 -2.238281 1.707031 -2.34375 C 1.644531 -2.785156 1.242188 -2.984375 0.839844 -2.921875 C 0.472656 -2.871094 0.105469 -2.597656 0.0078125 -2.082031 L -0.140625 -1.257812 C -0.164062 -1.140625 -0.164062 -1.027344 -0.148438 -0.921875 C -0.0703125 -0.386719 0.453125 -0.0664062 1.140625 -0.167969 C 1.832031 -0.269531 2.457031 -0.761719 2.628906 -1.65625 C 2.640625 -1.6875 2.636719 -1.722656 2.632812 -1.75 C 2.613281 -1.898438 2.453125 -1.972656 2.308594 -1.953125 C 2.191406 -1.933594 2.085938 -1.859375 2.058594 -1.71875 Z M 2.058594 -1.71875 "/></g></g></g><g fill="#7effe0" fill-opacity="1"><g transform="translate(14.853342, 13.546505)"><g><path d="M 1.832031 -1.265625 C 1.832031 -1.261719 1.820312 -1.335938 1.789062 -1.421875 C 1.820312 -1.449219 1.847656 -1.492188 1.867188 -1.539062 C 1.929688 -1.667969 2.011719 -2.09375 1.984375 -2.28125 C 1.914062 -2.757812 1.476562 -3.015625 0.972656 -2.941406 C 0.53125 -2.878906 0.152344 -2.574219 0.0625 -2.136719 L -0.136719 -1.125 C -0.160156 -1.003906 -0.164062 -0.882812 -0.148438 -0.78125 C -0.0742188 -0.289062 0.386719 -0.0585938 0.863281 -0.125 C 1.226562 -0.179688 1.542969 -0.34375 1.691406 -0.710938 C 1.777344 -0.699219 1.878906 -0.699219 1.976562 -0.714844 C 2.527344 -0.796875 2.902344 -1.25 2.992188 -1.765625 C 2.996094 -1.816406 3 -1.867188 2.992188 -1.910156 C 2.96875 -2.082031 2.828125 -2.160156 2.691406 -2.140625 C 2.566406 -2.121094 2.445312 -2.027344 2.417969 -1.847656 C 2.359375 -1.542969 2.175781 -1.3125 1.898438 -1.269531 C 1.878906 -1.269531 1.851562 -1.265625 1.832031 -1.265625 Z M 1.292969 -1.921875 C 1.285156 -1.878906 1.277344 -1.839844 1.277344 -1.800781 C 1.015625 -1.789062 0.816406 -1.546875 0.859375 -1.265625 C 0.886719 -1.109375 0.980469 -1.035156 1.078125 -0.972656 C 1.042969 -0.800781 0.917969 -0.703125 0.773438 -0.679688 C 0.589844 -0.65625 0.527344 -0.757812 0.511719 -0.871094 C 0.5 -0.960938 0.507812 -1.046875 0.519531 -1.097656 L 0.714844 -2.09375 C 0.746094 -2.257812 0.898438 -2.371094 1.042969 -2.390625 C 1.1875 -2.410156 1.296875 -2.328125 1.3125 -2.21875 C 1.324219 -2.136719 1.3125 -2.023438 1.292969 -1.921875 Z M 1.292969 -1.921875 "/></g></g></g><g fill="#7effe0" fill-opacity="1"><g transform="translate(17.291406, 13.188977)"><g><path d="M 3.910156 -2.171875 C 3.78125 -2.152344 3.65625 -2.0625 3.632812 -1.90625 C 3.507812 -1.316406 3.285156 -1.050781 3.066406 -1.015625 C 2.972656 -1.003906 2.917969 -1.054688 2.90625 -1.121094 C 2.90625 -1.144531 2.902344 -1.167969 2.90625 -1.191406 L 3.144531 -2.335938 C 3.160156 -2.429688 3.164062 -2.523438 3.152344 -2.605469 C 3.09375 -3 2.707031 -3.199219 2.285156 -3.136719 C 2.117188 -3.109375 1.878906 -3.03125 1.6875 -2.828125 C 1.574219 -2.925781 1.40625 -3.007812 1.132812 -2.96875 C 0.941406 -2.9375 0.839844 -2.867188 0.761719 -2.800781 C 0.699219 -2.863281 0.59375 -2.886719 0.488281 -2.871094 C 0.34375 -2.851562 0.207031 -2.757812 0.167969 -2.617188 L -0.261719 -0.351562 C -0.269531 -0.308594 -0.269531 -0.269531 -0.265625 -0.238281 C -0.238281 -0.0664062 -0.0742188 0.0117188 0.0898438 -0.0117188 C 0.246094 -0.0351562 0.394531 -0.152344 0.429688 -0.347656 L 0.753906 -2.027344 C 0.820312 -2.242188 0.953125 -2.378906 1.09375 -2.398438 C 1.1875 -2.410156 1.261719 -2.371094 1.273438 -2.285156 C 1.277344 -2.261719 1.277344 -2.230469 1.265625 -2.195312 L 0.941406 -0.597656 C 0.929688 -0.53125 0.921875 -0.46875 0.929688 -0.417969 C 0.957031 -0.242188 1.113281 -0.164062 1.269531 -0.1875 C 1.425781 -0.207031 1.578125 -0.328125 1.621094 -0.539062 L 1.933594 -2.136719 C 1.984375 -2.378906 2.140625 -2.550781 2.292969 -2.574219 C 2.378906 -2.585938 2.453125 -2.539062 2.464844 -2.453125 C 2.46875 -2.421875 2.46875 -2.390625 2.460938 -2.34375 L 2.25 -1.328125 C 2.226562 -1.214844 2.222656 -1.105469 2.238281 -1.003906 C 2.300781 -0.582031 2.6875 -0.394531 3.097656 -0.453125 C 3.558594 -0.523438 4.027344 -0.894531 4.214844 -1.878906 C 4.21875 -1.910156 4.222656 -1.945312 4.21875 -1.976562 C 4.195312 -2.128906 4.046875 -2.191406 3.910156 -2.171875 Z M 3.910156 -2.171875 "/></g></g></g><g fill="#7effe0" fill-opacity="1"><g transform="translate(20.962518, 12.65063)"><g><path d="M 2.171875 -1.664062 C 2.042969 -1.089844 1.585938 -0.800781 1.1875 -0.742188 C 0.847656 -0.691406 0.609375 -0.824219 0.578125 -1.039062 C 0.570312 -1.082031 0.570312 -1.125 0.582031 -1.171875 L 0.605469 -1.265625 C 0.753906 -1.203125 0.929688 -1.171875 1.117188 -1.199219 C 1.542969 -1.261719 1.875 -1.582031 1.941406 -2.019531 C 1.953125 -2.113281 1.953125 -2.203125 1.941406 -2.285156 C 1.875 -2.726562 1.476562 -3.015625 0.949219 -2.941406 C 0.53125 -2.878906 0.160156 -2.574219 0.0664062 -2.085938 L -0.09375 -1.246094 C -0.113281 -1.128906 -0.121094 -1.011719 -0.105469 -0.90625 C -0.0234375 -0.351562 0.550781 -0.0820312 1.234375 -0.179688 C 1.882812 -0.277344 2.574219 -0.703125 2.75 -1.640625 C 2.757812 -1.679688 2.757812 -1.710938 2.753906 -1.738281 C 2.734375 -1.882812 2.589844 -1.945312 2.453125 -1.925781 C 2.320312 -1.90625 2.191406 -1.816406 2.171875 -1.664062 Z M 1.015625 -2.386719 C 1.144531 -2.40625 1.246094 -2.308594 1.265625 -2.175781 C 1.269531 -2.136719 1.269531 -2.101562 1.261719 -2.058594 C 1.238281 -1.898438 1.105469 -1.824219 0.964844 -1.800781 C 0.878906 -1.789062 0.785156 -1.792969 0.714844 -1.824219 L 0.773438 -2.117188 C 0.800781 -2.269531 0.90625 -2.371094 1.015625 -2.386719 Z M 1.015625 -2.386719 "/></g></g></g><g fill="#7effe0" fill-opacity="1"><g transform="translate(23.176392, 12.325978)"><g><path d="M 1.757812 -1.546875 L 2.398438 -4.246094 C 2.472656 -4.8125 1.78125 -4.808594 1.6875 -4.304688 L 1.152344 -1.644531 C 1.046875 -1.246094 1.660156 -1.105469 1.757812 -1.546875 Z M 1.214844 -0.960938 C 1.003906 -0.929688 0.855469 -0.734375 0.886719 -0.519531 C 0.917969 -0.3125 1.117188 -0.164062 1.328125 -0.195312 C 1.542969 -0.226562 1.6875 -0.425781 1.65625 -0.632812 C 1.625 -0.847656 1.429688 -0.992188 1.214844 -0.960938 Z M 1.214844 -0.960938 "/></g></g></g></svg>